<svg width="276" height="276" viewBox="0 0 276 276" fill="none" xmlns="http://www.w3.org/2000/svg">
<path d="M276 276H0V-8.22544e-06H276V276Z" fill="#17ADA9"/>
<path d="M105.357 257.944C113.499 257.944 121.647 257.825 129.787 257.992C134.073 258.081 136.255 256.819 136.062 252.047C135.773 244.883 135.909 237.699 136.022 230.527C136.071 227.411 135.102 225.671 131.871 224.607C110.178 217.473 98.7102 202.101 96.5022 179.628C96.2222 176.777 95.1128 175.183 92.7168 173.717C77.3008 164.3 73.0648 151.237 79.8408 134.439C82.8128 127.069 85.8782 119.736 88.9395 112.404C90.3702 108.984 89.5262 107.273 85.5942 107.339C80.1635 107.429 74.7328 107.42 69.3048 107.331C55.2195 107.093 56.9875 109.687 56.7155 94.5707C56.6435 90.5733 58.1048 89.0013 62.1248 89.0693C71.4302 89.228 80.7422 89.016 90.0475 89.1493C94.1848 89.2093 96.2702 88.164 96.6275 83.3787C98.2582 61.5627 106.283 42.444 121.697 26.6307C123.086 25.204 125.851 24.096 124.969 21.684C124.157 19.4627 121.31 19.8053 119.31 19.3853C79.8542 11.0653 39.8568 39.8573 36.4968 80.168C35.2635 94.9747 31.8182 108.607 25.7035 121.899C22.3848 129.112 19.4115 136.5 16.6128 143.933C14.1542 150.472 17.9715 156.784 24.5102 158.036C27.9662 158.696 32.7555 156.152 34.6288 160.027C36.0942 163.055 35.2088 167.228 35.3408 170.893C35.3848 172.055 35.3355 173.219 35.3488 174.383C35.5862 195.224 47.8462 207.817 68.5955 207.956C73.8702 207.991 75.2208 209.935 75.1235 214.815C74.8782 227.027 75.1328 239.247 74.9955 251.461C74.9422 256.112 76.6888 258.148 81.5075 258.005C89.4502 257.771 97.4062 257.943 105.357 257.944ZM255.661 168.928C255.661 142.747 255.771 116.563 255.635 90.38C255.375 39.676 211.67 13.1467 174.911 18.6507C145.047 23.1227 118.042 50.1547 115.531 80.3213C114.853 88.468 115.387 89.0987 123.363 89.1067C139.849 89.1267 156.334 89.156 172.819 89.0627C175.221 89.0493 178.674 90.3227 179.781 87.828C180.922 85.2547 177.534 83.7507 175.882 82.0613C166.019 71.972 166.078 72.108 176.118 62.3307C178.735 59.7813 180.231 59.9293 182.662 62.4267C191.859 71.876 201.303 81.0853 210.545 90.4947C215.539 95.5787 215.861 100.293 211.066 105.287C201.666 115.08 191.941 124.557 182.366 134.181C180.853 135.703 179.565 136.401 177.39 134.857C166.377 127.043 166.037 124.264 175.355 114.927C176.178 114.104 177.046 113.32 177.809 112.445C178.789 111.321 180.585 110.396 179.995 108.661C179.359 106.783 177.361 107.385 175.922 107.381C155.945 107.336 135.969 107.395 115.993 107.317C112.669 107.305 110.61 108.403 109.323 111.623C105.151 122.064 100.583 132.348 96.5048 142.823C93.1462 151.452 97.7088 157.868 106.977 158.125C115.306 158.357 115.246 158.357 115.349 167.021C115.419 172.829 114.95 178.775 116.019 184.413C118.598 198 131.139 207.787 145.407 208.024C155.746 208.196 154.954 207.024 154.965 217.927C154.974 228.788 155.282 239.66 154.855 250.505C154.617 256.527 156.847 258.107 162.566 258.063C191.075 257.835 219.586 257.969 248.097 257.949C255.329 257.944 255.642 257.631 255.647 250.387C255.665 223.235 255.654 196.081 255.661 168.928" fill="white"/>
<path fill-rule="evenodd" clip-rule="evenodd" d="M105.357 257.943C97.4062 257.943 89.4502 257.771 81.5075 258.005C76.6888 258.148 74.9422 256.112 74.9955 251.461C75.1328 239.247 74.8782 227.027 75.1235 214.815C75.2208 209.935 73.8702 207.991 68.5955 207.956C47.8462 207.817 35.5862 195.224 35.3488 174.383C35.3355 173.219 35.3848 172.055 35.3408 170.893C35.2088 167.228 36.0942 163.055 34.6288 160.025C32.7555 156.152 27.9662 158.696 24.5102 158.036C17.9715 156.784 14.1542 150.471 16.6128 143.933C19.4115 136.5 22.3848 129.112 25.7035 121.899C31.8182 108.607 35.2635 94.9747 36.4968 80.168C39.8568 39.8574 79.8542 11.0654 119.31 19.3853C121.31 19.8053 124.157 19.4627 124.969 21.684C125.851 24.096 123.086 25.204 121.697 26.6307C106.283 42.444 98.2582 61.5627 96.6275 83.3787C96.2702 88.164 94.1848 89.2093 90.0475 89.1493C80.7422 89.016 71.4302 89.228 62.1248 89.0693C58.1048 89.0013 56.6435 90.5733 56.7155 94.5707C56.9875 109.687 55.2195 107.093 69.3048 107.331C74.7328 107.42 80.1635 107.429 85.5942 107.339C89.5262 107.273 90.3702 108.984 88.9395 112.404C85.8782 119.736 82.8128 127.069 79.8408 134.439C73.0648 151.237 77.3008 164.3 92.7168 173.717C95.1128 175.183 96.2222 176.777 96.5022 179.628C98.7102 202.101 110.178 217.473 131.871 224.607C135.102 225.671 136.071 227.411 136.022 230.527C135.909 237.699 135.773 244.883 136.062 252.047C136.255 256.819 134.073 258.081 129.787 257.992C121.647 257.825 113.499 257.944 105.357 257.943Z" fill="white"/>
</svg>
