<svg width="564" height="464" viewBox="0 0 564 464" fill="none" xmlns="http://www.w3.org/2000/svg">
<path d="M42.9353 425.496H0.952637V278.743H42.75V296.391H22.3153V317.752H42.1926V334.657H22.3153V407.105H42.9353V425.496Z" fill="white"/>
<path d="M98.6643 425.496H55.3816V278.743H76.7443V406.919H98.6643V425.496Z" fill="white"/>
<path d="M223.308 278.742V425.495H205.846V321.839H205.103L191.542 425.495H172.408L158.848 321.097H158.104V425.495H140.458V278.742H170.364L181.511 377.382H182.254L193.586 278.742H223.308Z" fill="white"/>
<path d="M281.079 425.496H239.096V278.743H280.892V296.391H260.459V317.752H280.335V334.657H260.459V407.105H281.079V425.496Z" fill="white"/>
<path d="M334.764 425.496L312.659 333.913H311.915V425.496H293.524V278.743H317.117L338.293 372.924H339.037V278.743H357.613V425.496H334.764Z" fill="white"/>
<path d="M421.329 296.575H405.353V425.495H383.99V296.575H367.829V278.742H421.329V296.575Z" fill="white"/>
<path d="M466.655 307.721C466.655 305.247 466.563 303.235 466.376 301.685C466.191 300.137 465.756 298.963 465.076 298.155C464.395 297.351 463.464 296.793 462.291 296.483C461.112 296.176 459.596 296.019 457.739 296.019C453.775 296.019 451.237 296.761 450.123 298.248C449.008 299.735 448.451 302.892 448.451 307.721V396.331C448.451 398.932 448.543 401.007 448.729 402.555C448.915 404.104 449.348 405.311 450.029 406.177C450.709 407.044 451.637 407.635 452.816 407.941C453.991 408.252 455.509 408.407 457.367 408.407C459.348 408.407 460.957 408.252 462.196 407.941C463.433 407.635 464.395 407.013 465.076 406.083C465.756 405.155 466.191 403.917 466.376 402.368C466.563 400.821 466.655 398.809 466.655 396.331V307.721ZM488.204 396.331C488.204 403.143 487.8 408.591 486.996 412.679C486.188 416.765 484.641 419.895 482.352 422.06C480.059 424.228 476.933 425.649 472.972 426.332C469.007 427.012 463.868 427.355 457.553 427.355C451.237 427.355 446.097 427.012 442.133 426.332C438.171 425.649 435.075 424.228 432.847 422.06C430.617 419.895 429.1 416.765 428.295 412.679C427.488 408.591 427.087 403.143 427.087 396.331V307.721C427.087 300.913 427.488 295.493 428.295 291.468C429.1 287.444 430.617 284.348 432.847 282.18C435.075 280.015 438.171 278.588 442.133 277.907C446.097 277.228 451.237 276.885 457.553 276.885C463.868 276.885 469.007 277.228 472.972 277.907C476.933 278.588 480.059 280.015 482.352 282.18C484.641 284.348 486.188 287.444 486.996 291.468C487.8 295.493 488.204 300.913 488.204 307.721V396.331Z" fill="white"/>
<path d="M524.056 336.143H533.714C537.181 336.143 539.473 335.465 540.586 334.101C541.701 332.738 542.258 330.263 542.258 326.67V308.651C542.258 306.299 542.168 304.41 541.98 302.985C541.796 301.562 541.392 300.415 540.774 299.549C540.152 298.683 539.225 298.094 537.988 297.783C536.749 297.475 535.137 297.319 533.157 297.319H524.056V336.143ZM524.056 425.497H502.692V278.742H533.157C539.473 278.742 544.61 279.085 548.577 279.765C552.537 280.447 555.665 281.871 557.957 284.037C560.249 286.205 561.796 289.238 562.6 293.139C563.405 297.041 563.808 302.213 563.808 308.651V324.069C563.808 327.909 563.405 331.035 562.6 333.45C561.796 335.865 560.744 337.815 559.444 339.302C558.141 340.787 556.717 341.874 555.17 342.553C553.621 343.234 552.105 343.761 550.618 344.131V344.875C552.6 345.371 554.397 346.021 556.006 346.826C557.616 347.631 559.009 348.869 560.186 350.541C561.362 352.213 562.258 354.349 562.878 356.949C563.498 359.55 563.808 362.893 563.808 366.981V425.497H542.258V363.637C542.258 359.674 541.764 356.921 540.774 355.37C539.782 353.823 537.43 353.049 533.714 353.049H524.056V425.497Z" fill="white"/>
<path d="M3.732 451.307C3.732 452.826 3.91867 454.138 4.29333 455.243C4.66667 456.35 5.16 457.266 5.77067 457.987C6.38267 458.71 7.076 459.247 7.85067 459.601C8.62533 459.953 9.408 460.129 10.1987 460.129C11.0093 460.129 11.748 459.963 12.412 459.631C13.076 459.299 13.6573 458.859 14.1587 458.311C14.6587 457.763 15.072 457.139 15.3987 456.438C15.7267 455.737 15.9627 455.017 16.1107 454.279H19.9053C19.6627 455.534 19.276 456.702 18.744 457.781C18.2107 458.862 17.5373 459.805 16.72 460.613C15.9027 461.418 14.9493 462.051 13.8587 462.509C12.7667 462.967 11.5467 463.197 10.1987 463.197C8.63867 463.197 7.23067 462.93 5.97733 462.398C4.72267 461.866 3.652 461.091 2.76667 460.074C1.88133 459.057 1.2 457.811 0.72 456.335C0.24 454.859 0 453.178 0 451.291C0 449.827 0.226667 448.417 0.68 447.062C1.13333 445.709 1.79467 444.509 2.664 443.466C3.53467 442.422 4.59867 441.59 5.85867 440.967C7.11733 440.346 8.55333 440.035 10.1667 440.035C11.5373 440.035 12.76 440.23 13.8347 440.619C14.9093 441.01 15.852 441.55 16.664 442.241C17.476 442.931 18.1587 443.75 18.712 444.699C19.2653 445.647 19.7053 446.686 20.032 447.814H16.1587C15.6 446.243 14.8307 445.07 13.8507 444.295C12.8707 443.521 11.6427 443.134 10.1667 443.134C9.21733 443.134 8.35067 443.35 7.56533 443.781C6.78 444.214 6.10267 444.802 5.53467 445.545C4.96533 446.287 4.52267 447.155 4.20533 448.146C3.88933 449.137 3.732 450.19 3.732 451.307Z" fill="white"/>
<path d="M42.0087 451.544C42.0087 450.206 41.8407 449.015 41.5034 447.971C41.1661 446.928 40.7047 446.051 40.1194 445.339C39.5354 444.628 38.8487 444.084 38.0647 443.711C37.2794 443.336 36.4327 443.15 35.5274 443.15C34.6101 443.15 33.7594 443.336 32.9741 443.711C32.1874 444.084 31.5087 444.628 30.9341 445.339C30.3594 446.051 29.9061 446.928 29.5741 447.971C29.2421 449.015 29.0767 450.206 29.0767 451.544C29.0767 452.883 29.2421 454.079 29.5741 455.132C29.9061 456.187 30.3594 457.08 30.9341 457.814C31.5087 458.546 32.1874 459.104 32.9741 459.49C33.7594 459.874 34.6101 460.067 35.5274 460.067C36.4327 460.067 37.2794 459.874 38.0647 459.49C38.8487 459.104 39.5354 458.546 40.1194 457.814C40.7047 457.08 41.1661 456.187 41.5034 455.132C41.8407 454.079 42.0087 452.883 42.0087 451.544ZM45.7394 451.56C45.7394 453.268 45.5127 454.836 45.0607 456.264C44.6074 457.692 43.9461 458.92 43.0754 459.948C42.2061 460.975 41.1394 461.774 39.8741 462.343C38.6101 462.911 37.1607 463.196 35.5274 463.196C33.8927 463.196 32.4461 462.908 31.1874 462.335C29.9274 461.76 28.8634 460.96 27.9927 459.932C27.1234 458.904 26.4647 457.676 26.0167 456.247C25.5687 454.82 25.3447 453.252 25.3447 451.544C25.3447 449.838 25.5687 448.278 26.0167 446.864C26.4647 445.452 27.1234 444.24 27.9927 443.228C28.8634 442.216 29.9274 441.431 31.1874 440.872C32.4461 440.314 33.8927 440.035 35.5274 440.035C37.1607 440.035 38.6101 440.316 39.8741 440.88C41.1394 441.444 42.2061 442.232 43.0754 443.244C43.9461 444.256 44.6074 445.468 45.0607 446.88C45.5127 448.294 45.7394 449.852 45.7394 451.56Z" fill="white"/>
<path d="M57.092 440.589L66.5626 457.363V440.589H70.2933V462.643H66.088L56.5693 445.711V462.643H52.8386V440.589H57.092Z" fill="white"/>
<path d="M80.9657 454.928C81.019 455.686 81.1737 456.38 81.4324 457.007C81.6897 457.634 82.0297 458.175 82.4524 458.627C82.8737 459.08 83.3684 459.431 83.9377 459.679C84.507 459.927 85.1337 460.051 85.819 460.051C86.4204 460.051 86.9964 459.987 87.5497 459.86C88.1044 459.734 88.591 459.528 89.0137 459.243C89.435 458.959 89.771 458.588 90.0244 458.128C90.2777 457.671 90.4044 457.11 90.4044 456.446C90.4044 455.844 90.2217 455.342 89.859 454.936C89.495 454.53 89.019 454.175 88.4284 453.868C87.8377 453.563 87.163 453.29 86.4044 453.047C85.6457 452.804 84.8737 452.551 84.0884 452.288C83.303 452.024 82.531 451.727 81.771 451.395C81.0137 451.063 80.339 450.656 79.7484 450.178C79.1577 449.698 78.6817 449.12 78.3177 448.446C77.9537 447.771 77.7724 446.959 77.7724 446.011C77.7724 445.042 77.9617 444.184 78.3417 443.442C78.7204 442.699 79.255 442.074 79.9457 441.567C80.6364 441.063 81.459 440.68 82.4124 440.422C83.3657 440.164 84.4124 440.035 85.5497 440.035C87.0684 440.035 88.3297 440.256 89.3377 440.699C90.343 441.142 91.1524 441.714 91.7644 442.414C92.375 443.116 92.8177 443.892 93.0924 444.746C93.3657 445.6 93.5297 446.438 93.5817 447.26H89.771C89.7084 446.554 89.559 445.943 89.3217 445.426C89.0844 444.91 88.775 444.483 88.3964 444.146C88.0177 443.808 87.5844 443.558 87.1004 443.395C86.615 443.231 86.099 443.15 85.5497 443.15C85.055 443.15 84.5644 443.199 84.0804 443.299C83.595 443.4 83.163 443.563 82.7844 443.79C82.4044 444.016 82.099 444.311 81.867 444.675C81.635 445.039 81.519 445.484 81.519 446.011C81.519 446.623 81.7004 447.136 82.0644 447.552C82.4284 447.968 82.9057 448.332 83.495 448.643C84.0857 448.955 84.7604 449.234 85.519 449.482C86.2777 449.73 87.0524 449.987 87.843 450.256C88.6337 450.524 89.4084 450.823 90.167 451.15C90.9257 451.476 91.6004 451.876 92.191 452.35C92.7804 452.826 93.2577 453.395 93.6217 454.059C93.9857 454.723 94.167 455.518 94.167 456.446C94.167 457.574 93.959 458.559 93.543 459.402C93.1257 460.246 92.547 460.947 91.803 461.506C91.0604 462.064 90.1804 462.486 89.163 462.77C88.1457 463.055 87.031 463.196 85.819 463.196C84.7337 463.196 83.6804 463.007 82.6577 462.627C81.635 462.247 80.7204 461.7 79.9137 460.983C79.1084 460.267 78.455 459.4 77.9537 458.383C77.4537 457.366 77.187 456.214 77.155 454.928H80.9657Z" fill="white"/>
<path d="M104.776 440.589V455.197C104.776 455.966 104.903 456.654 105.156 457.261C105.41 457.866 105.746 458.378 106.167 458.793C106.59 459.21 107.078 459.526 107.63 459.742C108.183 459.958 108.76 460.066 109.362 460.066C110.004 460.066 110.628 459.966 111.235 459.766C111.84 459.565 112.382 459.266 112.855 458.865C113.33 458.463 113.71 457.963 113.994 457.363C114.278 456.762 114.42 456.061 114.42 455.261V440.589H118.152V455.102C118.152 456.419 117.907 457.582 117.416 458.589C116.927 459.595 116.276 460.441 115.464 461.125C114.652 461.811 113.72 462.327 112.666 462.674C111.611 463.022 110.52 463.197 109.392 463.197C108.318 463.197 107.276 463.025 106.271 462.682C105.264 462.339 104.374 461.83 103.599 461.15C102.824 460.469 102.204 459.618 101.742 458.597C101.276 457.574 101.046 456.389 101.046 455.039V440.589H104.776Z" fill="white"/>
<path d="M130.199 440.589V459.45H140.808V462.643H126.468V440.589H130.199Z" fill="white"/>
<path d="M163.749 440.589V443.734H156.777V462.643H153.046V443.734H146.057V440.589H163.749Z" fill="white"/>
<path d="M186.026 451.544C186.026 450.206 185.858 449.015 185.521 447.971C185.184 446.928 184.722 446.051 184.137 445.339C183.553 444.628 182.866 444.084 182.082 443.711C181.297 443.336 180.45 443.15 179.545 443.15C178.628 443.15 177.777 443.336 176.992 443.711C176.205 444.084 175.526 444.628 174.952 445.339C174.377 446.051 173.924 446.928 173.592 447.971C173.26 449.015 173.094 450.206 173.094 451.544C173.094 452.883 173.26 454.079 173.592 455.132C173.924 456.187 174.377 457.08 174.952 457.814C175.526 458.546 176.205 459.104 176.992 459.49C177.777 459.874 178.628 460.067 179.545 460.067C180.45 460.067 181.297 459.874 182.082 459.49C182.866 459.104 183.553 458.546 184.137 457.814C184.722 457.08 185.184 456.187 185.521 455.132C185.858 454.079 186.026 452.883 186.026 451.544ZM189.757 451.56C189.757 453.268 189.53 454.836 189.078 456.264C188.625 457.692 187.964 458.92 187.093 459.948C186.224 460.975 185.157 461.774 183.892 462.343C182.628 462.911 181.178 463.196 179.545 463.196C177.91 463.196 176.464 462.908 175.205 462.335C173.945 461.76 172.881 460.96 172.01 459.932C171.141 458.904 170.482 457.676 170.034 456.247C169.586 454.82 169.362 453.252 169.362 451.544C169.362 449.838 169.586 448.278 170.034 446.864C170.482 445.452 171.141 444.24 172.01 443.228C172.881 442.216 173.945 441.431 175.205 440.872C176.464 440.314 177.91 440.035 179.545 440.035C181.178 440.035 182.628 440.316 183.892 440.88C185.157 441.444 186.224 442.232 187.093 443.244C187.964 444.256 188.625 445.468 189.078 446.88C189.53 448.294 189.757 449.852 189.757 451.56Z" fill="white"/>
<path d="M200.588 450.47H206.216C206.669 450.47 207.099 450.387 207.505 450.223C207.911 450.061 208.269 449.834 208.58 449.545C208.891 449.255 209.136 448.903 209.315 448.494C209.495 448.082 209.584 447.629 209.584 447.134C209.584 446.649 209.5 446.198 209.331 445.781C209.163 445.366 208.928 445.006 208.628 444.707C208.327 444.406 207.972 444.169 207.56 443.995C207.149 443.822 206.701 443.734 206.216 443.734H200.588V450.47ZM213.331 447.054C213.331 448.025 213.081 448.934 212.58 449.781C212.08 450.63 211.317 451.366 210.296 451.987C210.78 452.157 211.197 452.398 211.544 452.715C211.892 453.031 212.177 453.387 212.399 453.781C212.62 454.177 212.783 454.599 212.888 455.047C212.993 455.495 213.047 455.941 213.047 456.383V459.575C213.047 459.977 213.144 460.445 213.339 460.983C213.533 461.521 213.8 462.074 214.137 462.643H210.059C209.9 462.39 209.771 462.126 209.671 461.853C209.571 461.578 209.497 461.31 209.449 461.047C209.403 460.782 209.371 460.535 209.355 460.303C209.339 460.071 209.331 459.866 209.331 459.686V456.334C209.331 456.007 209.276 455.681 209.165 455.354C209.055 455.029 208.877 454.735 208.636 454.478C208.393 454.219 208.072 454.007 207.671 453.845C207.271 453.681 206.785 453.601 206.216 453.601H200.588V462.643H196.857V440.589H206.216C207.355 440.589 208.367 440.777 209.252 441.158C210.137 441.537 210.883 442.033 211.489 442.643C212.095 443.255 212.553 443.945 212.865 444.715C213.175 445.485 213.331 446.265 213.331 447.054Z" fill="white"/>
<path d="M220.618 438.909H222.95V462.644H220.618V438.909ZM218.675 436.611L223.79 432.855L224.859 434.96L219.938 438.585L218.675 436.611Z" fill="white"/>
<path d="M242.714 445.22L239.9 453.063H245.512L242.714 445.22ZM244.895 440.588L252.959 462.643H249.054L246.683 456.192H238.746C238.366 457.257 237.974 458.332 237.568 459.417C237.162 460.504 236.77 461.579 236.39 462.643H232.532L240.595 440.588H244.895Z" fill="white"/>
<path d="M273.718 459.449H277.67C278.673 459.449 279.6 459.279 280.454 458.936C281.308 458.593 282.042 458.089 282.66 457.425C283.276 456.761 283.758 455.943 284.105 454.968C284.454 453.992 284.629 452.872 284.629 451.608C284.629 450.249 284.452 449.073 284.097 448.083C283.745 447.091 283.26 446.275 282.644 445.632C282.026 444.988 281.292 444.512 280.438 444.2C279.584 443.889 278.662 443.735 277.67 443.735H273.718V459.449ZM269.988 440.588H278.556C280.074 440.588 281.436 440.875 282.644 441.449C283.85 442.025 284.878 442.811 285.728 443.807C286.574 444.803 287.225 445.967 287.678 447.3C288.132 448.633 288.357 450.059 288.357 451.576C288.357 453.157 288.121 454.623 287.646 455.972C287.173 457.32 286.504 458.491 285.638 459.481C284.774 460.473 283.742 461.248 282.54 461.805C281.34 462.365 280.012 462.644 278.556 462.644H269.988V440.588Z" fill="white"/>
<path d="M311.015 440.589V443.734H299.174V449.695H310.289V452.857H299.174V459.45H311.522V462.643H295.442V440.589H311.015Z" fill="white"/>
<path d="M336.375 456.936L341.813 440.588H345.767L338.351 462.643H334.399L326.889 440.588H330.857L336.375 456.936Z" fill="white"/>
<path d="M360.675 445.22L357.862 453.063H363.474L360.675 445.22ZM362.858 440.588L370.921 462.643H367.015L364.645 456.192H356.706C356.327 457.257 355.934 458.332 355.53 459.417C355.123 460.504 354.731 461.579 354.351 462.643H350.494L358.557 440.588H362.858Z" fill="white"/>
<path d="M382.099 440.589L391.569 457.363V440.589H395.3V462.643H391.095L381.577 445.711V462.643H377.847V440.589H382.099Z" fill="white"/>
<path d="M406.447 451.624C406.447 452.984 406.621 454.188 406.969 455.236C407.317 456.285 407.789 457.168 408.383 457.884C408.978 458.601 409.673 459.148 410.463 459.521C411.253 459.894 412.091 460.082 412.975 460.082C413.703 460.082 414.415 459.902 415.111 459.544C415.807 459.186 416.437 458.709 417.001 458.113C417.565 457.518 418.035 456.83 418.415 456.05C418.795 455.27 419.031 454.46 419.127 453.616H412.613V450.485H422.795V462.644H419.997L419.554 460.018C419.133 460.461 418.666 460.874 418.154 461.261C417.642 461.645 417.109 461.98 416.55 462.264C415.99 462.548 415.411 462.774 414.81 462.944C414.21 463.112 413.614 463.197 413.025 463.197C411.443 463.197 410.018 462.904 408.747 462.318C407.477 461.734 406.394 460.926 405.498 459.892C404.602 458.86 403.915 457.637 403.435 456.224C402.955 454.813 402.715 453.278 402.715 451.624C402.715 450.664 402.818 449.71 403.025 448.762C403.23 447.814 403.53 446.91 403.925 446.05C404.321 445.192 404.809 444.396 405.387 443.662C405.967 442.93 406.634 442.296 407.387 441.758C408.142 441.22 408.977 440.8 409.894 440.493C410.81 440.188 411.807 440.036 412.882 440.036C414.253 440.036 415.475 440.23 416.55 440.62C417.625 441.01 418.569 441.549 419.379 442.241C420.191 442.93 420.873 443.75 421.426 444.7C421.979 445.648 422.419 446.686 422.747 447.814H418.874C418.314 446.244 417.546 445.07 416.566 444.296C415.586 443.521 414.358 443.134 412.882 443.134C411.933 443.134 411.066 443.358 410.281 443.806C409.495 444.254 408.818 444.865 408.25 445.64C407.681 446.414 407.238 447.316 406.921 448.342C406.605 449.372 406.447 450.465 406.447 451.624Z" fill="white"/>
<path d="M434.48 440.589V455.197C434.48 455.966 434.607 456.654 434.859 457.261C435.112 457.866 435.449 458.378 435.871 458.793C436.292 459.21 436.78 459.526 437.333 459.742C437.887 459.958 438.463 460.066 439.064 460.066C439.707 460.066 440.332 459.966 440.939 459.766C441.544 459.565 442.084 459.266 442.559 458.865C443.032 458.463 443.412 457.963 443.696 457.363C443.981 456.762 444.123 456.061 444.123 455.261V440.589H447.855V455.102C447.855 456.419 447.611 457.582 447.119 458.589C446.629 459.595 445.979 460.441 445.168 461.125C444.355 461.811 443.423 462.327 442.369 462.674C441.315 463.022 440.224 463.197 439.096 463.197C438.02 463.197 436.98 463.025 435.973 462.682C434.967 462.339 434.076 461.83 433.301 461.15C432.527 460.469 431.907 459.618 431.444 458.597C430.98 457.574 430.748 456.389 430.748 455.039V440.589H434.48Z" fill="white"/>
<path d="M464.961 445.22L462.147 453.063H467.759L464.961 445.22ZM467.143 440.588L475.206 462.643H471.301L468.93 456.192H460.991C460.613 457.257 460.219 458.332 459.815 459.417C459.409 460.504 459.017 461.579 458.637 462.643H454.779L462.842 440.588H467.143Z" fill="white"/>
<path d="M485.863 450.47H491.491C491.944 450.47 492.374 450.387 492.779 450.223C493.184 450.061 493.544 449.834 493.854 449.545C494.166 449.255 494.41 448.903 494.59 448.494C494.77 448.082 494.858 447.629 494.858 447.134C494.858 446.649 494.775 446.198 494.606 445.781C494.438 445.366 494.203 445.006 493.902 444.707C493.602 444.406 493.246 444.169 492.835 443.995C492.424 443.822 491.975 443.734 491.491 443.734H485.863V450.47ZM498.606 447.054C498.606 448.025 498.355 448.934 497.854 449.781C497.354 450.63 496.592 451.366 495.57 451.987C496.055 452.157 496.471 452.398 496.819 452.715C497.167 453.031 497.451 453.387 497.672 453.781C497.894 454.177 498.058 454.599 498.163 455.047C498.268 455.495 498.322 455.941 498.322 456.383V459.575C498.322 459.977 498.418 460.445 498.614 460.983C498.808 461.521 499.074 462.074 499.411 462.643H495.334C495.174 462.39 495.046 462.126 494.946 461.853C494.844 461.578 494.772 461.31 494.724 461.047C494.676 460.782 494.646 460.535 494.628 460.303C494.612 460.071 494.606 459.866 494.606 459.686V456.334C494.606 456.007 494.551 455.681 494.44 455.354C494.33 455.029 494.152 454.735 493.91 454.478C493.668 454.219 493.346 454.007 492.946 453.845C492.546 453.681 492.059 453.601 491.491 453.601H485.863V462.643H482.131V440.589H491.491C492.628 440.589 493.642 440.777 494.526 441.158C495.411 441.537 496.158 442.033 496.764 442.643C497.37 443.255 497.828 443.945 498.139 444.715C498.45 445.485 498.606 446.265 498.606 447.054Z" fill="white"/>
<path d="M510.464 459.449H514.416C515.418 459.449 516.344 459.279 517.199 458.936C518.052 458.593 518.787 458.089 519.404 457.425C520.022 456.761 520.503 455.943 520.851 454.968C521.199 453.992 521.374 452.872 521.374 451.608C521.374 450.249 521.196 449.073 520.843 448.083C520.491 447.091 520.004 446.275 519.388 445.632C518.771 444.988 518.038 444.512 517.183 444.2C516.328 443.889 515.407 443.735 514.416 443.735H510.464V459.449ZM506.732 440.588H515.302C516.82 440.588 518.182 440.875 519.388 441.449C520.596 442.025 521.623 442.811 522.472 443.807C523.32 444.803 523.971 445.967 524.424 447.3C524.878 448.633 525.103 450.059 525.103 451.576C525.103 453.157 524.867 454.623 524.392 455.972C523.919 457.32 523.248 458.491 522.384 459.481C521.52 460.473 520.488 461.248 519.286 461.805C518.084 462.365 516.756 462.644 515.302 462.644H506.732V440.588Z" fill="white"/>
<path d="M535.919 462.643H532.187V440.588H535.919V462.643Z" fill="white"/>
<path d="M553.026 445.22L550.212 453.063H555.824L553.026 445.22ZM555.208 440.588L563.271 462.643H559.366L556.995 456.192H549.056C548.678 457.257 548.284 458.332 547.88 459.417C547.474 460.504 547.082 461.579 546.702 462.643H542.844L550.907 440.588H555.208Z" fill="white"/>
<path d="M248.865 240.944C257.008 240.944 265.156 240.825 273.296 240.992C277.581 241.081 279.764 239.819 279.571 235.047C279.281 227.883 279.417 220.699 279.531 213.527C279.58 210.411 278.611 208.671 275.38 207.607C253.687 200.473 242.219 185.101 240.011 162.628C239.731 159.777 238.621 158.183 236.225 156.717C220.809 147.3 216.573 134.237 223.349 117.439C226.321 110.069 229.387 102.736 232.448 95.404C233.879 91.984 233.035 90.2733 229.103 90.3387C223.672 90.4293 218.241 90.42 212.813 90.3307C198.728 90.0933 200.496 92.6867 200.224 77.5707C200.152 73.5733 201.613 72.0013 205.633 72.0693C214.939 72.228 224.251 72.016 233.556 72.1493C237.693 72.2093 239.779 71.164 240.136 66.3787C241.767 44.5627 249.792 25.444 265.205 9.63067C266.595 8.204 269.36 7.09599 268.477 4.68399C267.665 2.46266 264.819 2.80533 262.819 2.38533C223.363 -5.93467 183.365 22.8573 180.005 63.168C178.772 77.9747 175.327 91.6067 169.212 104.899C165.893 112.112 162.92 119.5 160.121 126.933C157.663 133.472 161.48 139.784 168.019 141.036C171.475 141.696 176.264 139.152 178.137 143.027C179.603 146.055 178.717 150.228 178.849 153.893C178.893 155.055 178.844 156.219 178.857 157.383C179.095 178.224 191.355 190.817 212.104 190.956C217.379 190.991 218.729 192.935 218.632 197.815C218.387 210.027 218.641 222.247 218.504 234.461C218.451 239.112 220.197 241.148 225.016 241.005C232.959 240.771 240.915 240.943 248.865 240.944ZM399.169 151.928C399.169 125.747 399.28 99.5627 399.144 73.38C398.884 22.676 355.179 -3.85333 318.42 1.65067C288.556 6.12267 261.551 33.1547 259.04 63.3213C258.361 71.468 258.896 72.0987 266.872 72.1067C283.357 72.1267 299.843 72.156 316.328 72.0627C318.729 72.0493 322.183 73.3227 323.289 70.828C324.431 68.2547 321.043 66.7507 319.391 65.0613C309.528 54.972 309.587 55.108 319.627 45.3307C322.244 42.7813 323.74 42.9293 326.171 45.4267C335.368 54.876 344.812 64.0853 354.053 73.4947C359.048 78.5787 359.369 83.2933 354.575 88.2867C345.175 98.08 335.449 107.557 325.875 117.181C324.361 118.703 323.073 119.401 320.899 117.857C309.885 110.043 309.545 107.264 318.864 97.9267C319.687 97.104 320.555 96.32 321.317 95.4453C322.297 94.3213 324.093 93.396 323.504 91.6613C322.868 89.7827 320.869 90.3853 319.431 90.3813C299.453 90.336 279.477 90.3947 259.501 90.3173C256.177 90.3053 254.119 91.4027 252.832 94.6227C248.66 105.064 244.092 115.348 240.013 125.823C236.655 134.452 241.217 140.868 250.485 141.125C258.815 141.357 258.755 141.357 258.857 150.021C258.928 155.829 258.459 161.775 259.528 167.413C262.107 181 274.648 190.787 288.916 191.024C299.255 191.196 298.463 190.024 298.473 200.927C298.483 211.788 298.791 222.66 298.364 233.505C298.125 239.527 300.356 241.107 306.075 241.063C334.584 240.835 363.095 240.969 391.605 240.949C398.837 240.944 399.151 240.631 399.156 233.387C399.173 206.235 399.163 179.081 399.169 151.928" fill="white"/>
<path fill-rule="evenodd" clip-rule="evenodd" d="M248.865 240.943C240.915 240.943 232.959 240.771 225.016 241.005C220.197 241.148 218.451 239.112 218.504 234.461C218.641 222.247 218.387 210.027 218.632 197.815C218.729 192.935 217.379 190.991 212.104 190.956C191.355 190.817 179.095 178.224 178.857 157.383C178.844 156.219 178.893 155.055 178.849 153.893C178.717 150.228 179.603 146.055 178.137 143.025C176.264 139.152 171.475 141.696 168.019 141.036C161.48 139.784 157.663 133.471 160.121 126.933C162.92 119.5 165.893 112.112 169.212 104.899C175.327 91.6067 178.772 77.9747 180.005 63.168C183.365 22.8574 223.363 -5.93465 262.819 2.38535C264.819 2.80535 267.665 2.46268 268.477 4.68401C269.36 7.09601 266.595 8.20402 265.205 9.63069C249.792 25.444 241.767 44.5627 240.136 66.3787C239.779 71.164 237.693 72.2093 233.556 72.1493C224.251 72.016 214.939 72.228 205.633 72.0693C201.613 72.0013 200.152 73.5733 200.224 77.5707C200.496 92.6867 198.728 90.0933 212.813 90.3307C218.241 90.42 223.672 90.4293 229.103 90.3387C233.035 90.2733 233.879 91.984 232.448 95.404C229.387 102.736 226.321 110.069 223.349 117.439C216.573 134.237 220.809 147.3 236.225 156.717C238.621 158.183 239.731 159.777 240.011 162.628C242.219 185.101 253.687 200.473 275.38 207.607C278.611 208.671 279.58 210.411 279.531 213.527C279.417 220.699 279.281 227.883 279.571 235.047C279.764 239.819 277.581 241.081 273.296 240.992C265.156 240.825 257.008 240.944 248.865 240.943Z" fill="white"/>
</svg>
