<svg width="564" height="481" viewBox="0 0 564 481" fill="none" xmlns="http://www.w3.org/2000/svg">
<path d="M42.9352 442.496H0.952515V295.743H42.7498V313.391H22.3152V334.752H42.1925V351.657H22.3152V424.105H42.9352V442.496Z" fill="#27363A"/>
<path d="M98.6643 442.496H55.3816V295.743H76.7443V423.919H98.6643V442.496Z" fill="#27363A"/>
<path d="M223.308 295.742V442.495H205.846V338.839H205.103L191.542 442.495H172.408L158.848 338.097H158.104V442.495H140.458V295.742H170.364L181.511 394.382H182.254L193.586 295.742H223.308Z" fill="#27363A"/>
<path d="M281.079 442.496H239.096V295.743H280.892V313.391H260.459V334.752H280.335V351.657H260.459V424.105H281.079V442.496Z" fill="#27363A"/>
<path d="M334.764 442.496L312.659 350.913H311.915V442.496H293.524V295.743H317.117L338.293 389.924H339.037V295.743H357.613V442.496H334.764Z" fill="#27363A"/>
<path d="M421.329 313.575H405.353V442.495H383.99V313.575H367.829V295.742H421.329V313.575Z" fill="#27363A"/>
<path d="M466.655 324.721C466.655 322.247 466.563 320.235 466.376 318.685C466.191 317.137 465.756 315.963 465.076 315.155C464.395 314.351 463.464 313.793 462.291 313.483C461.112 313.176 459.596 313.019 457.739 313.019C453.775 313.019 451.237 313.761 450.123 315.248C449.008 316.735 448.451 319.892 448.451 324.721V413.331C448.451 415.932 448.543 418.007 448.729 419.555C448.915 421.104 449.348 422.311 450.029 423.177C450.709 424.044 451.637 424.635 452.816 424.941C453.991 425.252 455.509 425.407 457.367 425.407C459.348 425.407 460.957 425.252 462.196 424.941C463.433 424.635 464.395 424.013 465.076 423.083C465.756 422.155 466.191 420.917 466.376 419.368C466.563 417.821 466.655 415.809 466.655 413.331V324.721ZM488.204 413.331C488.204 420.143 487.8 425.591 486.996 429.679C486.188 433.765 484.641 436.895 482.352 439.06C480.059 441.228 476.933 442.649 472.972 443.332C469.007 444.012 463.868 444.355 457.553 444.355C451.237 444.355 446.097 444.012 442.133 443.332C438.171 442.649 435.075 441.228 432.847 439.06C430.617 436.895 429.1 433.765 428.295 429.679C427.488 425.591 427.087 420.143 427.087 413.331V324.721C427.087 317.913 427.488 312.493 428.295 308.468C429.1 304.444 430.617 301.348 432.847 299.18C435.075 297.015 438.171 295.588 442.133 294.907C446.097 294.228 451.237 293.885 457.553 293.885C463.868 293.885 469.007 294.228 472.972 294.907C476.933 295.588 480.059 297.015 482.352 299.18C484.641 301.348 486.188 304.444 486.996 308.468C487.8 312.493 488.204 317.913 488.204 324.721V413.331Z" fill="#27363A"/>
<path d="M524.056 353.143H533.714C537.181 353.143 539.473 352.465 540.586 351.101C541.701 349.738 542.258 347.263 542.258 343.67V325.651C542.258 323.299 542.168 321.41 541.98 319.985C541.796 318.562 541.392 317.415 540.774 316.549C540.152 315.683 539.225 315.094 537.988 314.783C536.749 314.475 535.137 314.319 533.157 314.319H524.056V353.143ZM524.056 442.497H502.692V295.742H533.157C539.473 295.742 544.61 296.085 548.577 296.765C552.537 297.447 555.665 298.871 557.957 301.037C560.249 303.205 561.796 306.238 562.6 310.139C563.405 314.041 563.808 319.213 563.808 325.651V341.069C563.808 344.909 563.405 348.035 562.6 350.45C561.796 352.865 560.744 354.815 559.444 356.302C558.141 357.787 556.717 358.874 555.17 359.553C553.621 360.234 552.105 360.761 550.618 361.131V361.875C552.6 362.371 554.397 363.021 556.006 363.826C557.616 364.631 559.009 365.869 560.186 367.541C561.362 369.213 562.258 371.349 562.878 373.949C563.498 376.55 563.808 379.893 563.808 383.981V442.497H542.258V380.637C542.258 376.674 541.764 373.921 540.774 372.37C539.782 370.823 537.43 370.049 533.714 370.049H524.056V442.497Z" fill="#27363A"/>
<path d="M3.732 468.307C3.732 469.826 3.91867 471.138 4.29333 472.243C4.66667 473.35 5.16 474.266 5.77067 474.987C6.38267 475.71 7.076 476.247 7.85067 476.601C8.62533 476.953 9.408 477.129 10.1987 477.129C11.0093 477.129 11.748 476.963 12.412 476.631C13.076 476.299 13.6573 475.859 14.1587 475.311C14.6587 474.763 15.072 474.139 15.3987 473.438C15.7267 472.737 15.9627 472.017 16.1107 471.279H19.9053C19.6627 472.534 19.276 473.702 18.744 474.781C18.2107 475.862 17.5373 476.805 16.72 477.613C15.9027 478.418 14.9493 479.051 13.8587 479.509C12.7667 479.967 11.5467 480.197 10.1987 480.197C8.63867 480.197 7.23067 479.93 5.97733 479.398C4.72267 478.866 3.652 478.091 2.76667 477.074C1.88133 476.057 1.2 474.811 0.72 473.335C0.24 471.859 0 470.178 0 468.291C0 466.827 0.226667 465.417 0.68 464.062C1.13333 462.709 1.79467 461.509 2.664 460.466C3.53467 459.422 4.59867 458.59 5.85867 457.967C7.11733 457.346 8.55333 457.035 10.1667 457.035C11.5373 457.035 12.76 457.23 13.8347 457.619C14.9093 458.01 15.852 458.55 16.664 459.241C17.476 459.931 18.1587 460.75 18.712 461.699C19.2653 462.647 19.7053 463.686 20.032 464.814H16.1587C15.6 463.243 14.8307 462.07 13.8507 461.295C12.8707 460.521 11.6427 460.134 10.1667 460.134C9.21733 460.134 8.35067 460.35 7.56533 460.781C6.78 461.214 6.10267 461.802 5.53467 462.545C4.96533 463.287 4.52267 464.155 4.20533 465.146C3.88933 466.137 3.732 467.19 3.732 468.307Z" fill="#808080"/>
<path d="M42.0087 468.544C42.0087 467.206 41.8407 466.015 41.5034 464.971C41.1661 463.928 40.7047 463.051 40.1194 462.339C39.5354 461.628 38.8487 461.084 38.0647 460.711C37.2794 460.336 36.4327 460.15 35.5274 460.15C34.6101 460.15 33.7594 460.336 32.9741 460.711C32.1874 461.084 31.5087 461.628 30.9341 462.339C30.3594 463.051 29.9061 463.928 29.5741 464.971C29.2421 466.015 29.0767 467.206 29.0767 468.544C29.0767 469.883 29.2421 471.079 29.5741 472.132C29.9061 473.187 30.3594 474.08 30.9341 474.814C31.5087 475.546 32.1874 476.104 32.9741 476.49C33.7594 476.874 34.6101 477.067 35.5274 477.067C36.4327 477.067 37.2794 476.874 38.0647 476.49C38.8487 476.104 39.5354 475.546 40.1194 474.814C40.7047 474.08 41.1661 473.187 41.5034 472.132C41.8407 471.079 42.0087 469.883 42.0087 468.544ZM45.7394 468.56C45.7394 470.268 45.5127 471.836 45.0607 473.264C44.6074 474.692 43.9461 475.92 43.0754 476.948C42.2061 477.975 41.1394 478.774 39.8741 479.343C38.6101 479.911 37.1607 480.196 35.5274 480.196C33.8927 480.196 32.4461 479.908 31.1874 479.335C29.9274 478.76 28.8634 477.96 27.9927 476.932C27.1234 475.904 26.4647 474.676 26.0167 473.247C25.5687 471.82 25.3447 470.252 25.3447 468.544C25.3447 466.838 25.5687 465.278 26.0167 463.864C26.4647 462.452 27.1234 461.24 27.9927 460.228C28.8634 459.216 29.9274 458.431 31.1874 457.872C32.4461 457.314 33.8927 457.035 35.5274 457.035C37.1607 457.035 38.6101 457.316 39.8741 457.88C41.1394 458.444 42.2061 459.232 43.0754 460.244C43.9461 461.256 44.6074 462.468 45.0607 463.88C45.5127 465.294 45.7394 466.852 45.7394 468.56Z" fill="#808080"/>
<path d="M57.092 457.589L66.5626 474.363V457.589H70.2933V479.643H66.088L56.5693 462.711V479.643H52.8386V457.589H57.092Z" fill="#808080"/>
<path d="M80.9657 471.928C81.019 472.686 81.1737 473.38 81.4324 474.007C81.6897 474.634 82.0297 475.175 82.4524 475.627C82.8737 476.08 83.3684 476.431 83.9377 476.679C84.507 476.927 85.1337 477.051 85.819 477.051C86.4204 477.051 86.9964 476.987 87.5497 476.86C88.1044 476.734 88.591 476.528 89.0137 476.243C89.435 475.959 89.771 475.588 90.0244 475.128C90.2777 474.671 90.4044 474.11 90.4044 473.446C90.4044 472.844 90.2217 472.342 89.859 471.936C89.495 471.53 89.019 471.175 88.4284 470.868C87.8377 470.563 87.163 470.29 86.4044 470.047C85.6457 469.804 84.8737 469.551 84.0884 469.288C83.303 469.024 82.531 468.727 81.771 468.395C81.0137 468.063 80.339 467.656 79.7484 467.178C79.1577 466.698 78.6817 466.12 78.3177 465.446C77.9537 464.771 77.7724 463.959 77.7724 463.011C77.7724 462.042 77.9617 461.184 78.3417 460.442C78.7204 459.699 79.255 459.074 79.9457 458.567C80.6364 458.063 81.459 457.68 82.4124 457.422C83.3657 457.164 84.4124 457.035 85.5497 457.035C87.0684 457.035 88.3297 457.256 89.3377 457.699C90.343 458.142 91.1524 458.714 91.7644 459.414C92.375 460.116 92.8177 460.892 93.0924 461.746C93.3657 462.6 93.5297 463.438 93.5817 464.26H89.771C89.7084 463.554 89.559 462.943 89.3217 462.426C89.0844 461.91 88.775 461.483 88.3964 461.146C88.0177 460.808 87.5844 460.558 87.1004 460.395C86.615 460.231 86.099 460.15 85.5497 460.15C85.055 460.15 84.5644 460.199 84.0804 460.299C83.595 460.4 83.163 460.563 82.7844 460.79C82.4044 461.016 82.099 461.311 81.867 461.675C81.635 462.039 81.519 462.484 81.519 463.011C81.519 463.623 81.7004 464.136 82.0644 464.552C82.4284 464.968 82.9057 465.332 83.495 465.643C84.0857 465.955 84.7604 466.234 85.519 466.482C86.2777 466.73 87.0524 466.987 87.843 467.256C88.6337 467.524 89.4084 467.823 90.167 468.15C90.9257 468.476 91.6004 468.876 92.191 469.35C92.7804 469.826 93.2577 470.395 93.6217 471.059C93.9857 471.723 94.167 472.518 94.167 473.446C94.167 474.574 93.959 475.559 93.543 476.402C93.1257 477.246 92.547 477.947 91.803 478.506C91.0604 479.064 90.1804 479.486 89.163 479.77C88.1457 480.055 87.031 480.196 85.819 480.196C84.7337 480.196 83.6804 480.007 82.6577 479.627C81.635 479.247 80.7204 478.7 79.9137 477.983C79.1084 477.267 78.455 476.4 77.9537 475.383C77.4537 474.366 77.187 473.214 77.155 471.928H80.9657Z" fill="#808080"/>
<path d="M104.776 457.589V472.197C104.776 472.966 104.903 473.654 105.156 474.261C105.41 474.866 105.746 475.378 106.167 475.793C106.59 476.21 107.078 476.526 107.63 476.742C108.183 476.958 108.76 477.066 109.362 477.066C110.004 477.066 110.628 476.966 111.235 476.766C111.84 476.565 112.382 476.266 112.855 475.865C113.33 475.463 113.71 474.963 113.994 474.363C114.278 473.762 114.42 473.061 114.42 472.261V457.589H118.152V472.102C118.152 473.419 117.907 474.582 117.416 475.589C116.927 476.595 116.276 477.441 115.464 478.125C114.652 478.811 113.72 479.327 112.666 479.674C111.611 480.022 110.52 480.197 109.392 480.197C108.318 480.197 107.276 480.025 106.271 479.682C105.264 479.339 104.374 478.83 103.599 478.15C102.824 477.469 102.204 476.618 101.742 475.597C101.276 474.574 101.046 473.389 101.046 472.039V457.589H104.776Z" fill="#808080"/>
<path d="M130.199 457.589V476.45H140.808V479.643H126.468V457.589H130.199Z" fill="#808080"/>
<path d="M163.749 457.589V460.734H156.777V479.643H153.046V460.734H146.057V457.589H163.749Z" fill="#808080"/>
<path d="M186.026 468.544C186.026 467.206 185.858 466.015 185.521 464.971C185.184 463.928 184.722 463.051 184.137 462.339C183.553 461.628 182.866 461.084 182.082 460.711C181.297 460.336 180.45 460.15 179.545 460.15C178.628 460.15 177.777 460.336 176.992 460.711C176.205 461.084 175.526 461.628 174.952 462.339C174.377 463.051 173.924 463.928 173.592 464.971C173.26 466.015 173.094 467.206 173.094 468.544C173.094 469.883 173.26 471.079 173.592 472.132C173.924 473.187 174.377 474.08 174.952 474.814C175.526 475.546 176.205 476.104 176.992 476.49C177.777 476.874 178.628 477.067 179.545 477.067C180.45 477.067 181.297 476.874 182.082 476.49C182.866 476.104 183.553 475.546 184.137 474.814C184.722 474.08 185.184 473.187 185.521 472.132C185.858 471.079 186.026 469.883 186.026 468.544ZM189.757 468.56C189.757 470.268 189.53 471.836 189.078 473.264C188.625 474.692 187.964 475.92 187.093 476.948C186.224 477.975 185.157 478.774 183.892 479.343C182.628 479.911 181.178 480.196 179.545 480.196C177.91 480.196 176.464 479.908 175.205 479.335C173.945 478.76 172.881 477.96 172.01 476.932C171.141 475.904 170.482 474.676 170.034 473.247C169.586 471.82 169.362 470.252 169.362 468.544C169.362 466.838 169.586 465.278 170.034 463.864C170.482 462.452 171.141 461.24 172.01 460.228C172.881 459.216 173.945 458.431 175.205 457.872C176.464 457.314 177.91 457.035 179.545 457.035C181.178 457.035 182.628 457.316 183.892 457.88C185.157 458.444 186.224 459.232 187.093 460.244C187.964 461.256 188.625 462.468 189.078 463.88C189.53 465.294 189.757 466.852 189.757 468.56Z" fill="#808080"/>
<path d="M200.588 467.47H206.216C206.669 467.47 207.099 467.387 207.505 467.223C207.911 467.061 208.269 466.834 208.58 466.545C208.891 466.255 209.136 465.903 209.315 465.494C209.495 465.082 209.584 464.629 209.584 464.134C209.584 463.649 209.5 463.198 209.331 462.781C209.163 462.366 208.928 462.006 208.628 461.707C208.327 461.406 207.972 461.169 207.56 460.995C207.149 460.822 206.701 460.734 206.216 460.734H200.588V467.47ZM213.331 464.054C213.331 465.025 213.081 465.934 212.58 466.781C212.08 467.63 211.317 468.366 210.296 468.987C210.78 469.157 211.197 469.398 211.544 469.715C211.892 470.031 212.177 470.387 212.399 470.781C212.62 471.177 212.783 471.599 212.888 472.047C212.993 472.495 213.047 472.941 213.047 473.383V476.575C213.047 476.977 213.144 477.445 213.339 477.983C213.533 478.521 213.8 479.074 214.137 479.643H210.059C209.9 479.39 209.771 479.126 209.671 478.853C209.571 478.578 209.497 478.31 209.449 478.047C209.403 477.782 209.371 477.535 209.355 477.303C209.339 477.071 209.331 476.866 209.331 476.686V473.334C209.331 473.007 209.276 472.681 209.165 472.354C209.055 472.029 208.877 471.735 208.636 471.478C208.393 471.219 208.072 471.007 207.671 470.845C207.271 470.681 206.785 470.601 206.216 470.601H200.588V479.643H196.857V457.589H206.216C207.355 457.589 208.367 457.777 209.252 458.158C210.137 458.537 210.883 459.033 211.489 459.643C212.095 460.255 212.553 460.945 212.865 461.715C213.175 462.485 213.331 463.265 213.331 464.054Z" fill="#808080"/>
<path d="M220.618 455.909H222.95V479.644H220.618V455.909ZM218.675 453.611L223.79 449.855L224.859 451.96L219.938 455.585L218.675 453.611Z" fill="#808080"/>
<path d="M242.714 462.22L239.9 470.063H245.512L242.714 462.22ZM244.895 457.588L252.959 479.643H249.054L246.683 473.192H238.746C238.366 474.257 237.974 475.332 237.568 476.417C237.162 477.504 236.77 478.579 236.39 479.643H232.532L240.595 457.588H244.895Z" fill="#808080"/>
<path d="M273.718 476.449H277.67C278.673 476.449 279.6 476.279 280.454 475.936C281.308 475.593 282.042 475.089 282.66 474.425C283.276 473.761 283.758 472.943 284.105 471.968C284.454 470.992 284.629 469.872 284.629 468.608C284.629 467.249 284.452 466.073 284.097 465.083C283.745 464.091 283.26 463.275 282.644 462.632C282.026 461.988 281.292 461.512 280.438 461.2C279.584 460.889 278.662 460.735 277.67 460.735H273.718V476.449ZM269.988 457.588H278.556C280.074 457.588 281.436 457.875 282.644 458.449C283.85 459.025 284.878 459.811 285.728 460.807C286.574 461.803 287.225 462.967 287.678 464.3C288.132 465.633 288.357 467.059 288.357 468.576C288.357 470.157 288.121 471.623 287.646 472.972C287.173 474.32 286.504 475.491 285.638 476.481C284.774 477.473 283.742 478.248 282.54 478.805C281.34 479.365 280.012 479.644 278.556 479.644H269.988V457.588Z" fill="#808080"/>
<path d="M311.015 457.589V460.734H299.174V466.695H310.289V469.857H299.174V476.45H311.522V479.643H295.442V457.589H311.015Z" fill="#808080"/>
<path d="M336.375 473.936L341.813 457.588H345.767L338.351 479.643H334.399L326.889 457.588H330.857L336.375 473.936Z" fill="#808080"/>
<path d="M360.675 462.22L357.862 470.063H363.474L360.675 462.22ZM362.858 457.588L370.921 479.643H367.015L364.645 473.192H356.706C356.327 474.257 355.934 475.332 355.53 476.417C355.123 477.504 354.731 478.579 354.351 479.643H350.494L358.557 457.588H362.858Z" fill="#808080"/>
<path d="M382.099 457.589L391.569 474.363V457.589H395.3V479.643H391.095L381.577 462.711V479.643H377.847V457.589H382.099Z" fill="#808080"/>
<path d="M406.447 468.624C406.447 469.984 406.621 471.188 406.969 472.236C407.317 473.285 407.789 474.168 408.383 474.884C408.978 475.601 409.673 476.148 410.463 476.521C411.253 476.894 412.091 477.082 412.975 477.082C413.703 477.082 414.415 476.902 415.111 476.544C415.807 476.186 416.437 475.709 417.001 475.113C417.565 474.518 418.035 473.83 418.415 473.05C418.795 472.27 419.031 471.46 419.127 470.616H412.613V467.485H422.795V479.644H419.997L419.554 477.018C419.133 477.461 418.666 477.874 418.154 478.261C417.642 478.645 417.109 478.98 416.55 479.264C415.99 479.548 415.411 479.774 414.81 479.944C414.21 480.112 413.614 480.197 413.025 480.197C411.443 480.197 410.018 479.904 408.747 479.318C407.477 478.734 406.394 477.926 405.498 476.892C404.602 475.86 403.915 474.637 403.435 473.224C402.955 471.813 402.715 470.278 402.715 468.624C402.715 467.664 402.818 466.71 403.025 465.762C403.23 464.814 403.53 463.91 403.925 463.05C404.321 462.192 404.809 461.396 405.387 460.662C405.967 459.93 406.634 459.296 407.387 458.758C408.142 458.22 408.977 457.8 409.894 457.493C410.81 457.188 411.807 457.036 412.882 457.036C414.253 457.036 415.475 457.23 416.55 457.62C417.625 458.01 418.569 458.549 419.379 459.241C420.191 459.93 420.873 460.75 421.426 461.7C421.979 462.648 422.419 463.686 422.747 464.814H418.874C418.314 463.244 417.546 462.07 416.566 461.296C415.586 460.521 414.358 460.134 412.882 460.134C411.933 460.134 411.066 460.358 410.281 460.806C409.495 461.254 408.818 461.865 408.25 462.64C407.681 463.414 407.238 464.316 406.921 465.342C406.605 466.372 406.447 467.465 406.447 468.624Z" fill="#808080"/>
<path d="M434.48 457.589V472.197C434.48 472.966 434.607 473.654 434.859 474.261C435.112 474.866 435.449 475.378 435.871 475.793C436.292 476.21 436.78 476.526 437.333 476.742C437.887 476.958 438.463 477.066 439.064 477.066C439.707 477.066 440.332 476.966 440.939 476.766C441.544 476.565 442.084 476.266 442.559 475.865C443.032 475.463 443.412 474.963 443.696 474.363C443.981 473.762 444.123 473.061 444.123 472.261V457.589H447.855V472.102C447.855 473.419 447.611 474.582 447.119 475.589C446.629 476.595 445.979 477.441 445.168 478.125C444.355 478.811 443.423 479.327 442.369 479.674C441.315 480.022 440.224 480.197 439.096 480.197C438.02 480.197 436.98 480.025 435.973 479.682C434.967 479.339 434.076 478.83 433.301 478.15C432.527 477.469 431.907 476.618 431.444 475.597C430.98 474.574 430.748 473.389 430.748 472.039V457.589H434.48Z" fill="#808080"/>
<path d="M464.961 462.22L462.147 470.063H467.759L464.961 462.22ZM467.143 457.588L475.206 479.643H471.301L468.93 473.192H460.991C460.613 474.257 460.219 475.332 459.815 476.417C459.409 477.504 459.017 478.579 458.637 479.643H454.779L462.842 457.588H467.143Z" fill="#808080"/>
<path d="M485.863 467.47H491.491C491.944 467.47 492.374 467.387 492.779 467.223C493.184 467.061 493.544 466.834 493.854 466.545C494.166 466.255 494.41 465.903 494.59 465.494C494.77 465.082 494.858 464.629 494.858 464.134C494.858 463.649 494.775 463.198 494.606 462.781C494.438 462.366 494.203 462.006 493.902 461.707C493.602 461.406 493.246 461.169 492.835 460.995C492.424 460.822 491.975 460.734 491.491 460.734H485.863V467.47ZM498.606 464.054C498.606 465.025 498.355 465.934 497.854 466.781C497.354 467.63 496.592 468.366 495.57 468.987C496.055 469.157 496.471 469.398 496.819 469.715C497.167 470.031 497.451 470.387 497.672 470.781C497.894 471.177 498.058 471.599 498.163 472.047C498.268 472.495 498.322 472.941 498.322 473.383V476.575C498.322 476.977 498.418 477.445 498.614 477.983C498.808 478.521 499.074 479.074 499.411 479.643H495.334C495.174 479.39 495.046 479.126 494.946 478.853C494.844 478.578 494.772 478.31 494.724 478.047C494.676 477.782 494.646 477.535 494.628 477.303C494.612 477.071 494.606 476.866 494.606 476.686V473.334C494.606 473.007 494.551 472.681 494.44 472.354C494.33 472.029 494.152 471.735 493.91 471.478C493.668 471.219 493.346 471.007 492.946 470.845C492.546 470.681 492.059 470.601 491.491 470.601H485.863V479.643H482.131V457.589H491.491C492.628 457.589 493.642 457.777 494.526 458.158C495.411 458.537 496.158 459.033 496.764 459.643C497.37 460.255 497.828 460.945 498.139 461.715C498.45 462.485 498.606 463.265 498.606 464.054Z" fill="#808080"/>
<path d="M510.464 476.449H514.416C515.418 476.449 516.344 476.279 517.199 475.936C518.052 475.593 518.787 475.089 519.404 474.425C520.022 473.761 520.503 472.943 520.851 471.968C521.199 470.992 521.374 469.872 521.374 468.608C521.374 467.249 521.196 466.073 520.843 465.083C520.491 464.091 520.004 463.275 519.388 462.632C518.771 461.988 518.038 461.512 517.183 461.2C516.328 460.889 515.407 460.735 514.416 460.735H510.464V476.449ZM506.732 457.588H515.302C516.82 457.588 518.182 457.875 519.388 458.449C520.596 459.025 521.623 459.811 522.472 460.807C523.32 461.803 523.971 462.967 524.424 464.3C524.878 465.633 525.103 467.059 525.103 468.576C525.103 470.157 524.867 471.623 524.392 472.972C523.919 474.32 523.248 475.491 522.384 476.481C521.52 477.473 520.488 478.248 519.286 478.805C518.084 479.365 516.756 479.644 515.302 479.644H506.732V457.588Z" fill="#808080"/>
<path d="M535.919 479.643H532.187V457.588H535.919V479.643Z" fill="#808080"/>
<path d="M553.026 462.22L550.212 470.063H555.824L553.026 462.22ZM555.208 457.588L563.271 479.643H559.366L556.995 473.192H549.056C548.678 474.257 548.284 475.332 547.88 476.417C547.474 477.504 547.082 478.579 546.702 479.643H542.844L550.907 457.588H555.208Z" fill="#808080"/>
<path d="M419.509 276H143.509V-8.22544e-06H419.509V276Z" fill="#17ADA9"/>
<path d="M248.865 257.944C257.008 257.944 265.156 257.825 273.296 257.992C277.581 258.081 279.764 256.819 279.571 252.047C279.281 244.883 279.417 237.699 279.531 230.527C279.58 227.411 278.611 225.671 275.38 224.607C253.687 217.473 242.219 202.101 240.011 179.628C239.731 176.777 238.621 175.183 236.225 173.717C220.809 164.3 216.573 151.237 223.349 134.439C226.321 127.069 229.387 119.736 232.448 112.404C233.879 108.984 233.035 107.273 229.103 107.339C223.672 107.429 218.241 107.42 212.813 107.331C198.728 107.093 200.496 109.687 200.224 94.5707C200.152 90.5733 201.613 89.0013 205.633 89.0693C214.939 89.228 224.251 89.016 233.556 89.1493C237.693 89.2093 239.779 88.164 240.136 83.3787C241.767 61.5627 249.792 42.444 265.205 26.6307C266.595 25.204 269.36 24.096 268.477 21.684C267.665 19.4627 264.819 19.8053 262.819 19.3853C223.363 11.0653 183.365 39.8573 180.005 80.168C178.772 94.9747 175.327 108.607 169.212 121.899C165.893 129.112 162.92 136.5 160.121 143.933C157.663 150.472 161.48 156.784 168.019 158.036C171.475 158.696 176.264 156.152 178.137 160.027C179.603 163.055 178.717 167.228 178.849 170.893C178.893 172.055 178.844 173.219 178.857 174.383C179.095 195.224 191.355 207.817 212.104 207.956C217.379 207.991 218.729 209.935 218.632 214.815C218.387 227.027 218.641 239.247 218.504 251.461C218.451 256.112 220.197 258.148 225.016 258.005C232.959 257.771 240.915 257.943 248.865 257.944ZM399.169 168.928C399.169 142.747 399.28 116.563 399.144 90.38C398.884 39.676 355.179 13.1467 318.42 18.6507C288.556 23.1227 261.551 50.1547 259.04 80.3213C258.361 88.468 258.896 89.0987 266.872 89.1067C283.357 89.1267 299.843 89.156 316.328 89.0627C318.729 89.0493 322.183 90.3227 323.289 87.828C324.431 85.2547 321.043 83.7507 319.391 82.0613C309.528 71.972 309.587 72.108 319.627 62.3307C322.244 59.7813 323.74 59.9293 326.171 62.4267C335.368 71.876 344.812 81.0853 354.053 90.4947C359.048 95.5787 359.369 100.293 354.575 105.287C345.175 115.08 335.449 124.557 325.875 134.181C324.361 135.703 323.073 136.401 320.899 134.857C309.885 127.043 309.545 124.264 318.864 114.927C319.687 114.104 320.555 113.32 321.317 112.445C322.297 111.321 324.093 110.396 323.504 108.661C322.868 106.783 320.869 107.385 319.431 107.381C299.453 107.336 279.477 107.395 259.501 107.317C256.177 107.305 254.119 108.403 252.832 111.623C248.66 122.064 244.092 132.348 240.013 142.823C236.655 151.452 241.217 157.868 250.485 158.125C258.815 158.357 258.755 158.357 258.857 167.021C258.928 172.829 258.459 178.775 259.528 184.413C262.107 198 274.648 207.787 288.916 208.024C299.255 208.196 298.463 207.024 298.473 217.927C298.483 228.788 298.791 239.66 298.364 250.505C298.125 256.527 300.356 258.107 306.075 258.063C334.584 257.835 363.095 257.969 391.605 257.949C398.837 257.944 399.151 257.631 399.156 250.387C399.173 223.235 399.163 196.081 399.169 168.928" fill="white"/>
<path fill-rule="evenodd" clip-rule="evenodd" d="M248.865 257.943C240.915 257.943 232.959 257.771 225.016 258.005C220.197 258.148 218.451 256.112 218.504 251.461C218.641 239.247 218.387 227.027 218.632 214.815C218.729 209.935 217.379 207.991 212.104 207.956C191.355 207.817 179.095 195.224 178.857 174.383C178.844 173.219 178.893 172.055 178.849 170.893C178.717 167.228 179.603 163.055 178.137 160.025C176.264 156.152 171.475 158.696 168.019 158.036C161.48 156.784 157.663 150.471 160.121 143.933C162.92 136.5 165.893 129.112 169.212 121.899C175.327 108.607 178.772 94.9747 180.005 80.168C183.365 39.8574 223.363 11.0654 262.819 19.3853C264.819 19.8053 267.665 19.4627 268.477 21.684C269.36 24.096 266.595 25.204 265.205 26.6307C249.792 42.444 241.767 61.5627 240.136 83.3787C239.779 88.164 237.693 89.2093 233.556 89.1493C224.251 89.016 214.939 89.228 205.633 89.0693C201.613 89.0013 200.152 90.5733 200.224 94.5707C200.496 109.687 198.728 107.093 212.813 107.331C218.241 107.42 223.672 107.429 229.103 107.339C233.035 107.273 233.879 108.984 232.448 112.404C229.387 119.736 226.321 127.069 223.349 134.439C216.573 151.237 220.809 164.3 236.225 173.717C238.621 175.183 239.731 176.777 240.011 179.628C242.219 202.101 253.687 217.473 275.38 224.607C278.611 225.671 279.58 227.411 279.531 230.527C279.417 237.699 279.281 244.883 279.571 252.047C279.764 256.819 277.581 258.081 273.296 257.992C265.156 257.825 257.008 257.944 248.865 257.943Z" fill="white"/>
</svg>
